<svg width="85" height="339" viewBox="0 0 85 339" fill="none" xmlns="http://www.w3.org/2000/svg">
<path d="M5.19628 164.747C16.4009 164.29 23.7183 160.517 27.1483 153.428C30.8069 146.111 32.6363 137.193 32.6363 126.674C32.6363 116.841 31.8359 106.094 30.2353 94.432C28.8633 82.77 28.1773 71.451 28.1773 60.475C28.1773 50.185 29.4349 40.6953 31.9503 32.006C34.6943 23.3167 39.6106 16.228 46.6993 10.74C53.7879 5.02332 64.1923 1.82199 77.9123 1.13598C79.9703 0.907319 81.5709 1.47899 82.7143 2.85098C83.8576 4.22299 84.4293 5.82366 84.4293 7.65298C84.4293 9.25365 83.8576 10.74 82.7143 12.112C81.7996 13.484 80.1989 14.2843 77.9123 14.513C63.5063 15.4276 53.9023 19.0863 49.1003 25.489C44.2983 31.663 41.8973 39.552 41.8973 49.156C41.8973 58.9887 43.1549 70.079 45.6703 82.427C48.4143 94.775 49.7863 107.237 49.7863 119.814C49.7863 122.787 49.6719 125.645 49.4433 128.389C49.2146 131.133 48.8716 133.877 48.4143 136.621C47.4996 142.338 45.2129 148.054 41.5543 153.771C38.1243 159.488 33.5509 164.061 27.8343 167.491C25.5476 168.863 25.6619 170.121 28.1773 171.264C33.6653 174.237 38.1243 177.781 41.5543 181.897C45.2129 186.013 47.4996 190.929 48.4143 196.646C48.8716 199.39 49.2146 202.134 49.4433 204.878C49.6719 207.622 49.7863 210.48 49.7863 213.453C49.7863 226.03 48.4143 238.835 45.6703 251.869C43.1549 264.903 41.8973 276.794 41.8973 287.541C41.8973 297.602 44.2983 305.949 49.1003 312.58C53.9023 319.44 63.5063 323.442 77.9123 324.585C80.1989 324.814 81.914 325.614 83.0573 326.986C84.2006 328.358 84.7723 329.959 84.7723 331.788C84.7723 333.389 84.2006 334.875 83.0573 336.247C81.914 337.619 80.1989 338.191 77.9123 337.962C64.1923 337.047 53.7879 333.846 46.6993 328.358C39.6106 322.87 34.6943 315.781 31.9503 307.092C29.4349 298.403 28.1773 288.913 28.1773 278.623C28.1773 267.418 28.8633 256.099 30.2353 244.666C31.8359 233.004 32.6363 222.257 32.6363 212.424C32.6363 201.677 30.8069 192.759 27.1483 185.67C23.7183 178.581 16.4009 174.808 5.19628 174.351C1.99494 173.894 0.394277 172.293 0.394277 169.549C0.394277 168.406 0.737278 167.377 1.42328 166.462C2.33795 165.319 3.59561 164.747 5.19628 164.747Z" fill="#00131E"/>
</svg>
